<svg width="656" height="63" viewBox="0 0 656 63" fill="none" xmlns="http://www.w3.org/2000/svg">
<path d="M23.8915 48.8448C19.6441 48.8448 15.8834 47.8714 12.6094 45.9247C9.37962 43.9338 6.85774 41.1243 5.04376 37.4963C3.27402 33.8241 2.38915 29.5325 2.38915 24.6215C2.38915 19.7989 3.38463 15.5294 5.37558 11.813C7.36654 8.09654 10.1539 5.19859 13.7376 3.11915C17.3213 1.0397 21.4581 -2.34135e-05 26.1479 -2.34135e-05C30.0413 -2.34135e-05 33.4702 0.685751 36.4345 2.0573C39.4431 3.42885 41.8101 5.33132 43.5356 7.76471C45.3053 10.1981 46.3229 12.9412 46.5884 15.994H35.9036C35.5939 13.8261 34.5542 12.0563 32.7844 10.6848C31.0589 9.31323 28.8689 8.62746 26.2143 8.62746C23.6481 8.62746 21.3696 9.26899 19.3786 10.552C17.4319 11.7909 15.9055 13.6048 14.7994 15.994C13.6934 18.3831 13.1403 21.1926 13.1403 24.4224C13.1403 27.6964 13.6712 30.528 14.7331 32.9171C15.7949 35.3063 17.2992 37.1424 19.2459 38.4254C21.1926 39.6643 23.4933 40.2837 26.1479 40.2837C28.2273 40.2837 30.0856 39.8855 31.7226 39.0891C33.4038 38.2485 34.709 37.076 35.6381 35.5717C36.6115 34.0675 37.0982 32.3198 37.0982 30.3289V27.0106L40.4828 30.5943H25.5506V22.4978H46.7875V47.6502H37.43V46.3893C37.43 45.6371 37.4521 44.885 37.4963 44.1329C37.5406 43.3807 37.6512 42.6065 37.8282 41.8101C36.6778 43.978 34.9081 45.7035 32.519 46.9866C30.1298 48.2254 27.254 48.8448 23.8915 48.8448ZM62.5653 48.8448C60.6628 48.8448 58.8267 48.4466 57.057 47.6502C55.3315 46.8096 53.9378 45.615 52.876 44.0665C51.8584 42.4737 51.3496 40.6155 51.3496 38.4918C51.3496 35.0851 52.4999 32.5853 54.8006 30.9925C57.1012 29.3555 60.2204 28.2937 64.1581 27.807L68.8036 27.2761C70.0424 27.0991 70.9273 26.8115 71.4582 26.4133C71.9892 25.9709 72.2546 25.3736 72.2546 24.6215C72.2546 23.5596 71.8343 22.6748 70.9937 21.9669C70.153 21.259 69.0027 20.905 67.5427 20.905C65.9499 20.905 64.6447 21.3253 63.6271 22.166C62.6095 23.0066 62.0122 24.179 61.8353 25.6833H52.0796C52.2566 23.4269 52.9866 21.4138 54.2696 19.6441C55.5969 17.8743 57.3667 16.5028 59.5789 15.5294C61.791 14.5118 64.335 14.003 67.2109 14.003C70.5291 14.003 73.2501 14.5782 75.3738 15.7285C77.5417 16.8346 79.1124 18.4716 80.0857 20.6396C81.1033 22.7632 81.6121 25.3736 81.6121 28.4707V47.6502H72.7192V46.4556C72.7192 45.5265 72.8077 44.531 72.9846 43.4692C72.0555 45.1505 70.7282 46.4778 69.0027 47.4511C67.2772 48.3802 65.1314 48.8448 62.5653 48.8448ZM65.5517 42.0092C66.8348 42.0092 68.0072 41.7216 69.0691 41.1464C70.1309 40.527 70.9494 39.7085 71.5246 38.6909C72.144 37.6291 72.4537 36.4345 72.4537 35.1072V32.0544C72.0998 32.3641 71.6573 32.6074 71.1264 32.7844C70.5955 32.9614 69.8212 33.1605 68.8036 33.3817L66.5472 33.7799C64.7332 34.1338 63.3617 34.6426 62.4326 35.3063C61.5034 35.9699 61.0389 36.8769 61.0389 38.0273C61.0389 39.2661 61.4592 40.2394 62.2998 40.9473C63.1405 41.6552 64.2244 42.0092 65.5517 42.0092ZM87.4548 15.1312H97.0114V17.3877C97.0114 18.6265 96.9229 19.7768 96.746 20.8387C97.7193 18.7592 98.9803 17.1001 100.529 15.8613C102.122 14.6224 104.024 14.003 106.236 14.003C106.9 14.003 107.475 14.0694 107.962 14.2021V23.4933C107.254 23.3163 106.457 23.2278 105.573 23.2278C103.891 23.2278 102.409 23.5375 101.126 24.1569C99.8873 24.7763 98.8918 25.7939 98.1396 27.2097C97.4317 28.5813 97.0778 30.3952 97.0778 32.6517V47.6502H87.4548V15.1312ZM120.184 48.8448C118.281 48.8448 116.445 48.4466 114.675 47.6502C112.95 46.8096 111.556 45.615 110.494 44.0665C109.477 42.4737 108.968 40.6155 108.968 38.4918C108.968 35.0851 110.118 32.5853 112.419 30.9925C114.72 29.3555 117.839 28.2937 121.777 27.807L126.422 27.2761C127.661 27.0991 128.546 26.8115 129.077 26.4133C129.608 25.9709 129.873 25.3736 129.873 24.6215C129.873 23.5596 129.453 22.6748 128.612 21.9669C127.772 21.259 126.621 20.905 125.161 20.905C123.568 20.905 122.263 21.3253 121.246 22.166C120.228 23.0066 119.631 24.179 119.454 25.6833H109.698C109.875 23.4269 110.605 21.4138 111.888 19.6441C113.215 17.8743 114.985 16.5028 117.197 15.5294C119.41 14.5118 121.954 14.003 124.829 14.003C128.148 14.003 130.869 14.5782 132.992 15.7285C135.16 16.8346 136.731 18.4716 137.704 20.6396C138.722 22.7632 139.231 25.3736 139.231 28.4707V47.6502H130.338V46.4556C130.338 45.5265 130.426 44.531 130.603 43.4692C129.674 45.1505 128.347 46.4778 126.621 47.4511C124.896 48.3802 122.75 48.8448 120.184 48.8448ZM123.17 42.0092C124.453 42.0092 125.626 41.7216 126.688 41.1464C127.749 40.527 128.568 39.7085 129.143 38.6909C129.762 37.6291 130.072 36.4345 130.072 35.1072V32.0544C129.718 32.3641 129.276 32.6074 128.745 32.7844C128.214 32.9614 127.44 33.1605 126.422 33.3817L124.166 33.7799C122.352 34.1338 120.98 34.6426 120.051 35.3063C119.122 35.9699 118.657 36.8769 118.657 38.0273C118.657 39.2661 119.078 40.2394 119.918 40.9473C120.759 41.6552 121.843 42.0092 123.17 42.0092ZM160.138 62.3169C156.908 62.3169 154.121 61.7639 151.776 60.6578C149.431 59.5959 147.639 58.0917 146.401 56.145C145.206 54.2425 144.609 52.0082 144.609 49.4421H154.298C154.387 51.2118 154.94 52.5612 155.957 53.4903C157.019 54.4637 158.523 54.9504 160.47 54.9504C162.505 54.9504 164.164 54.3531 165.447 53.1585C166.731 52.0082 167.372 50.3712 167.372 48.2475V45.1283C167.372 43.6241 167.461 42.3631 167.638 41.3455C166.664 42.894 165.337 44.1329 163.656 45.062C161.974 45.9911 160.028 46.4556 157.815 46.4556C154.984 46.4556 152.484 45.8362 150.316 44.5974C148.148 43.3143 146.445 41.4561 145.206 39.0227C144.011 36.5893 143.414 33.6693 143.414 30.2625C143.414 26.9 144.056 24.0021 145.339 21.5687C146.666 19.091 148.414 17.2107 150.582 15.9276C152.75 14.6446 155.05 14.003 157.484 14.003C159.961 14.003 162.019 14.4897 163.656 15.4631C165.337 16.3922 166.664 17.6974 167.638 19.3786C167.461 18.4053 167.372 17.3213 167.372 16.1267V15.1312H176.995V45.9911C176.995 51.3445 175.491 55.3928 172.482 58.1359C169.474 60.9233 165.359 62.3169 160.138 62.3169ZM160.603 38.9564C162.063 38.9564 163.346 38.6024 164.452 37.8945C165.558 37.1424 166.421 36.1027 167.04 34.7754C167.704 33.4481 168.036 31.9438 168.036 30.2625C168.036 28.537 167.704 27.0106 167.04 25.6833C166.421 24.356 165.558 23.3384 164.452 22.6305C163.346 21.8784 162.063 21.5023 160.603 21.5023C159.143 21.5023 157.86 21.8784 156.754 22.6305C155.648 23.3384 154.785 24.356 154.165 25.6833C153.546 27.0106 153.236 28.537 153.236 30.2625C153.236 31.9438 153.546 33.4481 154.165 34.7754C154.785 36.1027 155.648 37.1424 156.754 37.8945C157.904 38.6024 159.187 38.9564 160.603 38.9564ZM198.413 48.8448C195.095 48.8448 192.152 48.159 189.586 46.7875C187.064 45.4159 185.073 43.425 183.613 40.8146C182.198 38.16 181.49 34.9966 181.49 31.3244C181.49 27.9176 182.198 24.9091 183.613 22.2987C185.029 19.6441 186.998 17.6089 189.52 16.1931C192.086 14.7331 194.984 14.003 198.214 14.003C201.532 14.003 204.408 14.7331 206.841 16.1931C209.275 17.6531 211.133 19.7326 212.416 22.4314C213.699 25.086 214.34 28.2052 214.34 31.7889V33.6471H191.245C191.245 35.1514 191.555 36.5009 192.174 37.6954C192.838 38.89 193.701 39.8412 194.763 40.5491C195.869 41.2128 197.086 41.5446 198.413 41.5446C200.006 41.5446 201.355 41.1464 202.461 40.35C203.567 39.5094 204.231 38.3591 204.452 36.899H214.141C213.92 39.1555 213.124 41.1907 211.752 43.0046C210.425 44.8186 208.611 46.2565 206.31 47.3184C204.01 48.336 201.377 48.8448 198.413 48.8448ZM204.518 27.3424C204.474 25.3957 203.855 23.8472 202.66 22.6969C201.51 21.5023 200.006 20.905 198.147 20.905C196.245 20.905 194.652 21.5023 193.369 22.6969C192.086 23.8915 191.356 25.44 191.179 27.3424H204.518Z" fill="#028D1D"/>
<path d="M240.504 1.19455H254.308C259.352 1.19455 263.665 2.0573 267.249 3.7828C270.877 5.46405 273.664 8.05229 275.611 11.5475C277.602 14.9985 278.597 19.2901 278.597 24.4224C278.597 29.2007 277.69 33.3374 275.876 36.8327C274.107 40.2837 271.496 42.9604 268.045 44.8629C264.594 46.7211 260.413 47.6502 255.502 47.6502H240.504V1.19455ZM255.104 43.8674C259.086 43.8674 262.493 43.1595 265.324 41.7437C268.156 40.2837 270.302 38.1157 271.762 35.2399C273.266 32.3198 274.018 28.714 274.018 24.4224C274.018 18.184 272.359 13.3836 269.041 10.0211C265.767 6.61438 260.944 4.911 254.573 4.911H244.884V43.8674H255.104ZM299.143 48.5793C296.09 48.5793 293.436 47.9157 291.179 46.5884C288.923 45.2611 287.153 43.3143 285.87 40.7482C284.631 38.1821 284.012 35.1072 284.012 31.5235C284.012 28.3379 284.653 25.4842 285.936 22.9623C287.22 20.3962 288.989 18.4053 291.246 16.9895C293.546 15.5294 296.09 14.7994 298.878 14.7994C301.842 14.7994 304.386 15.4852 306.51 16.8567C308.633 18.2283 310.248 20.175 311.354 22.6969C312.46 25.1745 313.013 28.0725 313.013 31.3907V32.3198H288.127C288.127 35.0187 288.591 37.3415 289.52 39.2882C290.449 41.2349 291.732 42.7171 293.369 43.7347C295.051 44.708 296.997 45.1947 299.21 45.1947C301.731 45.1947 303.855 44.5974 305.581 43.4028C307.306 42.164 308.346 40.35 308.7 37.9609H312.814C312.505 39.9961 311.797 41.8101 310.691 43.4028C309.585 44.9956 308.036 46.2565 306.045 47.1857C304.098 48.1148 301.798 48.5793 299.143 48.5793ZM308.633 29.1343C308.589 25.8161 307.704 23.1614 305.979 21.1705C304.253 19.1795 301.886 18.184 298.878 18.184C295.913 18.184 293.458 19.2238 291.511 21.3032C289.609 23.3384 288.525 25.9488 288.259 29.1343H308.633ZM331.143 48.5793C328.444 48.5793 326.099 48.1148 324.108 47.1857C322.117 46.2565 320.569 44.9735 319.463 43.3365C318.357 41.6995 317.759 39.7527 317.671 37.4963H321.719C321.852 39.8855 322.737 41.7658 324.374 43.1374C326.055 44.5089 328.312 45.1947 331.143 45.1947C333.753 45.1947 335.811 44.6417 337.315 43.5356C338.864 42.4295 339.638 40.9252 339.638 39.0227C339.638 37.4742 339.085 36.2796 337.979 35.439C336.873 34.5984 335.191 33.9568 332.935 33.5144L328.223 32.5853C325.214 32.0101 322.87 30.9925 321.188 29.5325C319.507 28.0725 318.666 26.1921 318.666 23.8915C318.666 22.166 319.175 20.6174 320.193 19.2459C321.21 17.8743 322.626 16.7904 324.44 15.994C326.254 15.1976 328.289 14.7994 330.546 14.7994C333.023 14.7994 335.147 15.1976 336.917 15.994C338.731 16.7904 340.147 17.9407 341.164 19.445C342.182 20.905 342.779 22.6526 342.956 24.6878H338.841C338.62 22.6969 337.758 21.1262 336.253 19.9759C334.749 18.7813 332.78 18.184 330.347 18.184C328.09 18.184 326.276 18.6928 324.905 19.7104C323.533 20.728 322.847 22.0554 322.847 23.6924C322.847 25.1966 323.401 26.347 324.507 27.1434C325.613 27.9397 327.228 28.537 329.351 28.9352L334.395 29.9307C337.404 30.5059 339.704 31.5013 341.297 32.9171C342.934 34.3329 343.753 36.2575 343.753 38.6909C343.753 40.5491 343.222 42.2304 342.16 43.7347C341.142 45.2389 339.682 46.4335 337.78 47.3184C335.921 48.159 333.709 48.5793 331.143 48.5793ZM350.689 15.7285H354.87V47.6502H350.689V15.7285ZM350.689 44.0665H354.87V47.6502H350.689V44.0665ZM350.689 15.7285H352.812V19.3123H350.689V15.7285ZM350.423 2.92005H355.202V9.55657H350.423V2.92005ZM377.146 62.4497C374.491 62.4497 372.146 61.9851 370.111 61.056C368.076 60.1269 366.483 58.7774 365.333 57.0077C364.182 55.2822 363.563 53.2691 363.474 50.9685H367.655C367.744 53.4019 368.651 55.3707 370.376 56.875C372.102 58.3793 374.358 59.1314 377.146 59.1314C380.464 59.1314 383.052 58.2023 384.91 56.3441C386.813 54.5301 387.764 51.8312 387.764 48.2475V44.3983C387.764 43.248 387.764 42.0755 387.764 40.881C386.879 42.8719 385.419 44.5089 383.384 45.792C381.393 47.0308 379.048 47.6502 376.349 47.6502C373.606 47.6502 371.129 46.9644 368.916 45.5929C366.748 44.2213 365.045 42.2967 363.806 39.8191C362.612 37.2972 362.014 34.4214 362.014 31.1916C362.014 27.9619 362.656 25.1082 363.939 22.6305C365.222 20.1529 366.97 18.2283 369.182 16.8567C371.394 15.4852 373.849 14.7994 376.548 14.7994C379.38 14.7994 381.703 15.4631 383.517 16.7904C385.375 18.0734 386.791 19.622 387.764 21.4359C387.764 20.3299 387.764 19.2238 387.764 18.1177V15.7285H391.879V47.0529C391.879 52.0967 390.596 55.9237 388.03 58.5341C385.508 61.1445 381.88 62.4497 377.146 62.4497ZM377.079 44.2656C379.247 44.2656 381.15 43.7125 382.787 42.6065C384.468 41.5004 385.751 39.9518 386.636 37.9609C387.521 35.9699 387.963 33.6914 387.963 31.1253C387.963 28.6476 387.499 26.4355 386.569 24.4887C385.685 22.4978 384.424 20.9493 382.787 19.8432C381.15 18.7371 379.269 18.184 377.146 18.184C375.022 18.184 373.142 18.7371 371.505 19.8432C369.868 20.905 368.585 22.4314 367.655 24.4224C366.771 26.3691 366.328 28.6255 366.328 31.1916C366.328 33.7578 366.771 36.0363 367.655 38.0273C368.585 39.974 369.868 41.5004 371.505 42.6065C373.142 43.7125 375 44.2656 377.079 44.2656ZM401.178 15.7285H405.293V18.5822C405.293 19.5114 405.293 20.4626 405.293 21.4359C406.31 19.5777 407.748 18.0071 409.607 16.724C411.509 15.441 413.699 14.7994 416.177 14.7994C418.477 14.7994 420.49 15.2861 422.216 16.2595C423.941 17.2328 425.269 18.6928 426.198 20.6396C427.171 22.542 427.658 24.8648 427.658 27.6079V47.6502H423.477V28.0725C423.477 24.8869 422.835 22.4535 421.552 20.7723C420.313 19.0468 418.3 18.184 415.513 18.184C413.522 18.184 411.752 18.6928 410.204 19.7104C408.655 20.728 407.461 22.0775 406.62 23.7587C405.779 25.3957 405.359 27.1655 405.359 29.0679V47.6502H401.178V15.7285ZM467.6 48.5793C463.883 48.5793 460.632 47.9378 457.844 46.6547C455.101 45.3274 452.955 43.4913 451.407 41.1464C449.902 38.7573 449.106 36.0363 449.018 32.9835H453.464C453.641 35.2842 454.305 37.3415 455.455 39.1555C456.65 40.9252 458.287 42.3189 460.366 43.3365C462.445 44.3541 464.857 44.8629 467.6 44.8629C471.538 44.8629 474.679 44.0001 477.024 42.2746C479.413 40.5491 480.607 38.1821 480.607 35.1735C480.607 33.0056 479.811 31.258 478.218 29.9307C476.67 28.6034 474.259 27.5637 470.984 26.8115L462.888 24.9533C459.083 24.0684 456.074 22.6084 453.862 20.5732C451.694 18.538 450.61 15.9276 450.61 12.7421C450.61 10.3972 451.296 8.27351 452.668 6.37104C454.083 4.42433 456.052 2.92005 458.574 1.8582C461.096 0.752117 463.95 0.199074 467.135 0.199074C470.321 0.199074 473.152 0.774239 475.63 1.92457C478.152 3.0749 480.121 4.71191 481.537 6.8356C482.997 8.91504 483.815 11.2821 483.992 13.9367H479.546C479.413 11.99 478.793 10.2645 477.687 8.76019C476.626 7.25591 475.165 6.08346 473.307 5.24283C471.493 4.4022 469.414 3.98189 467.069 3.98189C464.68 3.98189 462.578 4.35796 460.764 5.1101C458.995 5.818 457.601 6.81348 456.583 8.09654C455.61 9.3796 455.123 10.8396 455.123 12.4766C455.123 14.6446 455.853 16.4143 457.313 17.7859C458.773 19.1132 461.03 20.1086 464.083 20.7723L472.975 22.8296C476.825 23.7145 479.811 25.1745 481.935 27.2097C484.103 29.2449 485.187 31.8332 485.187 34.9744C485.187 37.5848 484.435 39.9297 482.93 42.0092C481.426 44.0444 479.347 45.6593 476.692 46.8538C474.037 48.0042 471.007 48.5793 467.6 48.5793ZM500.25 46.7875L487.309 15.7285H491.888L500.316 36.7663C501.024 38.4476 501.732 40.1509 502.44 41.8764C502.661 41.2128 502.838 40.7261 502.971 40.4164C503.104 40.0625 503.281 39.5758 503.502 38.9564C503.723 38.4254 503.878 38.0494 503.966 37.8282C504.055 37.5627 504.21 37.1866 504.431 36.6999L512.328 15.7285H516.709L498.657 61.5205H494.277L500.25 46.7875ZM532.095 48.5793C529.396 48.5793 527.051 48.1148 525.06 47.1857C523.069 46.2565 521.521 44.9735 520.415 43.3365C519.309 41.6995 518.711 39.7527 518.623 37.4963H522.671C522.804 39.8855 523.689 41.7658 525.326 43.1374C527.007 44.5089 529.263 45.1947 532.095 45.1947C534.705 45.1947 536.763 44.6417 538.267 43.5356C539.815 42.4295 540.59 40.9252 540.59 39.0227C540.59 37.4742 540.037 36.2796 538.931 35.439C537.824 34.5984 536.143 33.9568 533.887 33.5144L529.175 32.5853C526.166 32.0101 523.821 30.9925 522.14 29.5325C520.459 28.0725 519.618 26.1921 519.618 23.8915C519.618 22.166 520.127 20.6174 521.145 19.2459C522.162 17.8743 523.578 16.7904 525.392 15.994C527.206 15.1976 529.241 14.7994 531.498 14.7994C533.975 14.7994 536.099 15.1976 537.869 15.994C539.683 16.7904 541.098 17.9407 542.116 19.445C543.134 20.905 543.731 22.6526 543.908 24.6878H539.793C539.572 22.6969 538.709 21.1262 537.205 19.9759C535.701 18.7813 533.732 18.184 531.299 18.184C529.042 18.184 527.228 18.6928 525.857 19.7104C524.485 20.728 523.799 22.0554 523.799 23.6924C523.799 25.1966 524.352 26.347 525.458 27.1434C526.565 27.9397 528.179 28.537 530.303 28.9352L535.347 29.9307C538.355 30.5059 540.656 31.5013 542.249 32.9171C543.886 34.3329 544.704 36.2575 544.704 38.6909C544.704 40.5491 544.173 42.2304 543.112 43.7347C542.094 45.2389 540.634 46.4335 538.731 47.3184C536.873 48.159 534.661 48.5793 532.095 48.5793ZM561.538 48.2475C559.149 48.2475 557.202 47.606 555.698 46.3229C554.194 44.9956 553.442 42.894 553.442 40.0182V19.3123H547.137V15.7285H553.442V5.57466H557.623V15.7285H564.657V19.3123H557.623V39.6864C557.623 41.4119 558.043 42.6507 558.884 43.4028C559.769 44.155 560.963 44.531 562.467 44.531C563.264 44.531 564.149 44.4204 565.122 44.1992V47.7829C564.591 47.9157 564.016 48.0263 563.396 48.1148C562.777 48.2033 562.158 48.2475 561.538 48.2475ZM583.671 48.5793C580.618 48.5793 577.964 47.9157 575.707 46.5884C573.451 45.2611 571.681 43.3143 570.398 40.7482C569.159 38.1821 568.54 35.1072 568.54 31.5235C568.54 28.3379 569.181 25.4842 570.464 22.9623C571.747 20.3962 573.517 18.4053 575.774 16.9895C578.074 15.5294 580.618 14.7994 583.406 14.7994C586.37 14.7994 588.914 15.4852 591.038 16.8567C593.161 18.2283 594.776 20.175 595.882 22.6969C596.988 25.1745 597.541 28.0725 597.541 31.3907V32.3198H572.654C572.654 35.0187 573.119 37.3415 574.048 39.2882C574.977 41.2349 576.26 42.7171 577.897 43.7347C579.579 44.708 581.525 45.1947 583.737 45.1947C586.259 45.1947 588.383 44.5974 590.109 43.4028C591.834 42.164 592.874 40.35 593.228 37.9609H597.342C597.033 39.9961 596.325 41.8101 595.219 43.4028C594.113 44.9956 592.564 46.2565 590.573 47.1857C588.626 48.1148 586.326 48.5793 583.671 48.5793ZM593.161 29.1343C593.117 25.8161 592.232 23.1614 590.507 21.1705C588.781 19.1795 586.414 18.184 583.406 18.184C580.441 18.184 577.986 19.2238 576.039 21.3032C574.137 23.3384 573.053 25.9488 572.787 29.1343H593.161ZM604.787 15.7285H608.968V18.6486C608.968 19.5777 608.968 20.5068 608.968 21.4359C609.942 19.4892 611.291 17.8965 613.016 16.6576C614.742 15.4188 616.799 14.7994 619.188 14.7994C621.445 14.7994 623.414 15.4188 625.095 16.6576C626.82 17.8522 628.037 19.6662 628.745 22.0996C629.807 19.8432 631.245 18.0734 633.059 16.7904C634.917 15.4631 637.085 14.7994 639.563 14.7994C641.642 14.7994 643.478 15.264 645.071 16.1931C646.708 17.1222 647.991 18.538 648.92 20.4405C649.849 22.2987 650.314 24.5994 650.314 27.3424V47.6502H646.133V28.2052C646.133 24.9754 645.535 22.4978 644.341 20.7723C643.19 19.0468 641.332 18.184 638.766 18.184C636.952 18.184 635.337 18.6928 633.921 19.7104C632.55 20.728 631.488 22.0775 630.736 23.7587C629.984 25.3957 629.608 27.1655 629.608 29.0679V47.6502H625.427V27.9397C625.427 24.7984 624.852 22.3872 623.701 20.7059C622.595 19.0247 620.781 18.184 618.259 18.184C616.445 18.184 614.83 18.7371 613.415 19.8432C611.999 20.905 610.893 22.2987 610.096 24.0242C609.344 25.7497 608.968 27.6079 608.968 29.5989V47.6502H604.787V15.7285Z" fill="#2A2E32"/>
</svg>
